<svg width="230" height="230" viewBox="0 0 230 230" fill="none" xmlns="http://www.w3.org/2000/svg">
<path d="M29.6775 111.29H37.0968V118.71H29.6775V111.29Z" fill="url(#paint0_linear)"/>
<path d="M44.5161 111.29H51.9355V118.71H44.5161V111.29Z" fill="url(#paint1_linear)"/>
<path d="M59.3547 111.29H66.7741V118.71H59.3547V111.29Z" fill="url(#paint2_linear)"/>
<path d="M219.201 170.029L224.213 161.257L221.452 158.496C227.104 144.688 230 130.076 230 115C230 51.5859 178.414 0 115 0C51.5859 0 0 51.5859 0 115C0 134.829 5.14609 154.319 14.8387 171.477V215.161H58.5162C75.6771 224.854 95.1746 230 115 230C130.076 230 144.688 227.104 158.493 221.449L161.251 224.209L170.026 219.197C170.868 219.583 171.714 219.94 172.567 220.258L175.23 230H195.734L198.397 220.262C199.247 219.943 200.096 219.586 200.938 219.201L209.711 224.213L224.209 209.716L219.197 200.942C219.583 200.1 219.94 199.254 220.258 198.401L230 195.738V175.233L220.262 172.571C219.943 171.717 219.586 170.872 219.201 170.029ZM7.41935 115C7.41935 55.6814 55.6814 7.41935 115 7.41935C174.319 7.41935 222.581 55.6814 222.581 115C222.581 128.055 220.284 140.745 215.755 152.798L209.716 146.759L200.942 151.771C200.1 151.385 199.254 151.028 198.401 150.709L195.738 140.968H185.484V96.4516H163.226V59.3548H155.806V26.6582C155.806 24.9866 154.971 23.4255 153.58 22.4981L142.093 14.8387H133.548V59.3548H126.129V96.4516H111.29V72.3677C111.29 69.0674 112.886 65.8504 115.665 63.5391C122.316 58.0126 126.129 49.9502 126.129 41.4259C126.129 30.2788 119.463 19.9757 109.142 15.1829L103.871 12.7357V38.8212L96.4516 43.7662L89.0323 38.8212V12.7357L83.7612 15.1829C73.44 19.9757 66.7742 30.2788 66.7742 41.4259C66.7742 49.9502 70.5871 58.0126 77.2385 63.5391C80.0171 65.8504 81.6129 69.0674 81.6129 72.3677V96.4516H14.8387V154.182C9.98968 141.761 7.41935 128.469 7.41935 115ZM81.9879 57.8369C77.0356 53.7161 74.1936 47.7367 74.1936 41.4259C74.1936 35.2383 76.9794 29.3912 81.6129 25.341V42.7917L96.4516 52.6854L111.29 42.7917V25.341C115.924 29.3912 118.71 35.2383 118.71 41.4259C118.71 47.7367 115.868 53.7161 110.915 57.8369C106.438 61.5629 103.871 66.8557 103.871 72.3677V96.4516H89.0323V72.3677C89.0323 66.8557 86.4656 61.5629 81.9879 57.8369ZM178.065 103.871V126.129H22.2581V103.871H178.065ZM148.387 59.3548H140.968V23.008L148.387 27.953V59.3548ZM155.806 66.7742V74.1936H133.548V66.7742H155.806ZM133.548 81.6129H155.806V96.4516H133.548V81.6129ZM22.2581 133.548H178.065V140.968H175.23L172.567 150.706C171.717 151.024 170.868 151.381 170.026 151.767L161.251 146.755L148.387 159.623V140.968H118.71V170.645H148.387V164.108L151.767 170.029C151.381 170.872 151.024 171.717 150.706 172.571L140.968 175.23V195.734L150.706 198.397C151.024 199.247 151.381 200.096 151.767 200.938L147.882 207.742H22.2581V133.548ZM140.968 148.387V163.226H126.129V148.387H140.968ZM115 222.581C101.534 222.581 88.2425 220.014 75.8183 215.161H152.204L152.798 215.755C140.745 220.284 128.055 222.581 115 222.581ZM222.581 190.068L214.446 192.298L213.848 194.242C213.317 195.957 212.605 197.667 211.727 199.325L210.769 201.123L214.96 208.468L208.477 214.953L201.13 210.761L199.332 211.718C197.674 212.598 195.964 213.314 194.249 213.841L192.305 214.439L190.068 222.581H180.896L178.666 214.446L176.722 213.848C175.007 213.317 173.297 212.605 171.64 211.727L169.841 210.769L162.496 214.96L156.011 208.477L160.203 201.13L159.244 199.332C158.366 197.674 157.65 195.964 157.123 194.249L156.526 192.305L148.387 190.068V180.896L156.522 178.666L157.12 176.722C157.65 175.007 158.362 173.297 159.241 171.64L160.199 169.841L156.008 162.496L162.49 156.011L169.837 160.203L171.636 159.244C173.293 158.366 175.003 157.65 176.719 157.123L178.662 156.526L180.899 148.387H190.072L192.302 156.522L194.245 157.12C195.961 157.65 197.671 158.362 199.328 159.241L201.127 160.199L208.472 156.008L214.957 162.49L210.765 169.837L211.723 171.636C212.602 173.293 213.317 175.003 213.844 176.719L214.442 178.662L222.581 180.899V190.068Z" fill="url(#paint3_linear)"/>
<path d="M185.484 163.226C173.208 163.226 163.226 173.208 163.226 185.484C163.226 197.76 173.208 207.742 185.484 207.742C197.76 207.742 207.742 197.76 207.742 185.484C207.742 173.208 197.76 163.226 185.484 163.226ZM185.484 200.323C177.3 200.323 170.645 193.668 170.645 185.484C170.645 177.3 177.3 170.645 185.484 170.645C193.668 170.645 200.323 177.3 200.323 185.484C200.323 193.668 193.668 200.323 185.484 200.323Z" fill="url(#paint4_linear)"/>
<path d="M29.6775 185.484H74.1936V140.968H29.6775V185.484ZM37.0968 148.387H66.7743V178.065H37.0968V148.387Z" fill="url(#paint5_linear)"/>
<path d="M29.6775 192.903H74.1936V200.323H29.6775V192.903Z" fill="url(#paint6_linear)"/>
<path d="M111.29 140.968H81.6128V170.645H111.29V140.968ZM103.871 163.226H89.0321V148.387H103.871V163.226Z" fill="url(#paint7_linear)"/>
<path d="M81.6128 178.064H133.548V185.484H81.6128V178.064Z" fill="url(#paint8_linear)"/>
<path d="M81.6128 192.903H133.548V200.323H81.6128V192.903Z" fill="url(#paint9_linear)"/>
<defs>
<linearGradient x1="29.6775" y1="114.409" x2="37.0968" y2="114.409" gradientUnits="userSpaceOnUse">
<stop stop-color="#950B32"/>
<stop offset="1" stop-color="#E85649"/>
</linearGradient>
<linearGradient x1="44.5161" y1="114.409" x2="51.9355" y2="114.409" gradientUnits="userSpaceOnUse">
<stop stop-color="#950B32"/>
<stop offset="1" stop-color="#E85649"/>
</linearGradient>
<linearGradient x1="59.3547" y1="114.409" x2="66.7741" y2="114.409" gradientUnits="userSpaceOnUse">
<stop stop-color="#950B32"/>
<stop offset="1" stop-color="#E85649"/>
</linearGradient>
<linearGradient x1="0" y1="96.6667" x2="230" y2="96.6667" gradientUnits="userSpaceOnUse">
<stop stop-color="#950B32"/>
<stop offset="1" stop-color="#E85649"/>
</linearGradient>
<linearGradient x1="163.226" y1="181.936" x2="207.742" y2="181.936" gradientUnits="userSpaceOnUse">
<stop stop-color="#950B32"/>
<stop offset="1" stop-color="#E85649"/>
</linearGradient>
<linearGradient x1="29.6775" y1="159.677" x2="74.1936" y2="159.677" gradientUnits="userSpaceOnUse">
<stop stop-color="#950B32"/>
<stop offset="1" stop-color="#E85649"/>
</linearGradient>
<linearGradient x1="29.6775" y1="196.022" x2="74.1936" y2="196.022" gradientUnits="userSpaceOnUse">
<stop stop-color="#950B32"/>
<stop offset="1" stop-color="#E85649"/>
</linearGradient>
<linearGradient x1="81.6128" y1="153.441" x2="111.29" y2="153.441" gradientUnits="userSpaceOnUse">
<stop stop-color="#950B32"/>
<stop offset="1" stop-color="#E85649"/>
</linearGradient>
<linearGradient x1="81.6128" y1="181.183" x2="133.548" y2="181.183" gradientUnits="userSpaceOnUse">
<stop stop-color="#950B32"/>
<stop offset="1" stop-color="#E85649"/>
</linearGradient>
<linearGradient x1="81.6128" y1="196.022" x2="133.548" y2="196.022" gradientUnits="userSpaceOnUse">
<stop stop-color="#950B32"/>
<stop offset="1" stop-color="#E85649"/>
</linearGradient>
</defs>
</svg>
