<svg width="230" height="230" viewBox="0 0 230 230" fill="none" xmlns="http://www.w3.org/2000/svg">
<path d="M226.167 141.833H161.69C167.338 132.17 165.21 119.844 156.649 112.634C148.088 105.424 135.579 105.424 127.018 112.634C118.456 119.844 116.328 132.17 121.977 141.833H69V108.92L131.92 46H199.333C205.685 46 210.833 40.8513 210.833 34.5V26.8333C210.833 20.4821 205.685 15.3333 199.333 15.3333H69V11.5C69 5.14873 63.8513 0 57.5 0C51.1487 0 46 5.14873 46 11.5V19.1667H23V11.5C23 5.14873 17.8513 0 11.5 0C5.14873 0 0 5.14873 0 11.5V218.5C0 224.851 5.14873 230 11.5 230C17.8513 230 23 224.851 23 218.5V210.833H46V218.5C46 224.851 51.1487 230 57.5 230C63.8513 230 69 224.851 69 218.5V149.5H226.167C228.284 149.5 230 147.784 230 145.667C230 143.55 228.284 141.833 226.167 141.833ZM69 46H98.0797L69 75.0797V46ZM69 98.0797V85.9203L108.92 46H121.08L69 98.0797ZM199.333 23C201.45 23 203.167 24.7162 203.167 26.8333V34.5C203.167 36.6171 201.45 38.3333 199.333 38.3333H69V23H199.333ZM61.3333 218.5C61.3333 220.617 59.6171 222.333 57.5 222.333C55.3829 222.333 53.6667 220.617 53.6667 218.5V207C53.6667 204.883 51.9504 203.167 49.8333 203.167H19.1667C17.0496 203.167 15.3333 204.883 15.3333 207V218.5C15.3333 220.617 13.6171 222.333 11.5 222.333C9.38291 222.333 7.66667 220.617 7.66667 218.5V11.5C7.66667 9.38291 9.38291 7.66667 11.5 7.66667C13.6171 7.66667 15.3333 9.38291 15.3333 11.5V23C15.3333 25.1171 17.0496 26.8333 19.1667 26.8333H49.8333C51.9504 26.8333 53.6667 25.1171 53.6667 23V11.5C53.6667 9.38291 55.3829 7.66667 57.5 7.66667C59.6171 7.66667 61.3333 9.38291 61.3333 11.5V218.5ZM126.5 130.333C126.443 123.236 131.265 117.027 138.156 115.325C145.046 113.623 152.204 116.872 155.459 123.18C158.714 129.487 157.214 137.204 151.835 141.833H131.832C128.484 138.945 126.541 134.755 126.5 130.333Z" fill="url(#paint0_linear)"/>
<path d="M220.187 167.486C218.452 166.518 216.863 165.308 215.468 163.894C211.623 159.606 206.134 157.16 200.375 157.167C194.616 157.174 189.133 159.635 185.3 163.933C182.883 166.929 179.24 168.671 175.39 168.671C171.541 168.671 167.898 166.929 165.481 163.933C161.64 159.629 156.146 157.168 150.378 157.168C144.61 157.168 139.115 159.629 135.275 163.933C132.857 166.928 129.214 168.669 125.365 168.669C121.516 168.669 117.874 166.928 115.456 163.933C111.615 159.63 106.122 157.171 100.355 157.171C94.5876 157.171 89.0941 159.63 85.2533 163.933C83.5831 165.723 81.5458 167.131 79.281 168.061C77.2698 168.734 76.1851 170.91 76.8583 172.922C77.5316 174.933 79.7078 176.018 81.719 175.344C85.0165 174.096 87.9963 172.132 90.4437 169.594C92.862 166.599 96.5051 164.858 100.355 164.858C104.204 164.858 107.848 166.599 110.266 169.594C114.106 173.896 119.599 176.356 125.365 176.356C131.132 176.356 136.625 173.896 140.465 169.594C142.882 166.598 146.526 164.856 150.376 164.856C154.226 164.856 157.87 166.598 160.287 169.594C164.127 173.9 169.621 176.362 175.39 176.362C181.159 176.362 186.654 173.9 190.494 169.594C192.908 166.605 196.543 164.865 200.386 164.861C204.229 164.857 207.868 166.587 210.289 169.571C212.211 171.492 214.407 173.117 216.806 174.394C218.711 175.325 221.011 174.536 221.942 172.63C222.874 170.725 222.084 168.425 220.179 167.494L220.187 167.486Z" fill="url(#paint1_linear)"/>
<path d="M220.187 190.486C218.452 189.518 216.863 188.308 215.468 186.894C211.623 182.606 206.134 180.16 200.375 180.167C194.616 180.174 189.133 182.635 185.3 186.933C182.883 189.929 179.24 191.671 175.39 191.671C171.541 191.671 167.898 189.929 165.481 186.933C161.64 182.629 156.146 180.168 150.378 180.168C144.61 180.168 139.115 182.629 135.275 186.933C132.857 189.928 129.214 191.669 125.365 191.669C121.516 191.669 117.874 189.928 115.456 186.933C111.615 182.63 106.122 180.171 100.355 180.171C94.5876 180.171 89.0942 182.63 85.2534 186.933C83.5831 188.723 81.5459 190.131 79.281 191.061C77.98 191.497 77.0101 192.593 76.7368 193.938C76.4634 195.282 76.9281 196.67 77.9558 197.579C78.9834 198.488 80.418 198.78 81.719 198.344C85.0166 197.096 87.9963 195.132 90.4437 192.594C92.862 189.599 96.5051 187.858 100.355 187.858C104.204 187.858 107.848 189.599 110.266 192.594C114.106 196.896 119.599 199.356 125.365 199.356C131.132 199.356 136.625 196.896 140.465 192.594C142.882 189.598 146.526 187.856 150.376 187.856C154.226 187.856 157.87 189.598 160.287 192.594C164.127 196.9 169.621 199.362 175.39 199.362C181.159 199.362 186.654 196.9 190.494 192.594C192.908 189.605 196.543 187.865 200.386 187.861C204.229 187.857 207.868 189.587 210.289 192.571C212.211 194.492 214.407 196.117 216.806 197.394C218.711 198.325 221.011 197.536 221.942 195.63C222.874 193.725 222.084 191.425 220.179 190.494L220.187 190.486Z" fill="url(#paint2_linear)"/>
<path d="M220.187 213.486C218.452 212.518 216.863 211.308 215.468 209.894C211.623 205.606 206.134 203.16 200.375 203.167C194.616 203.174 189.133 205.635 185.3 209.933C182.883 212.929 179.24 214.671 175.39 214.671C171.541 214.671 167.898 212.929 165.481 209.933C161.64 205.629 156.146 203.168 150.378 203.168C144.61 203.168 139.115 205.629 135.275 209.933C132.857 212.928 129.214 214.669 125.365 214.669C121.516 214.669 117.874 212.928 115.456 209.933C111.615 205.63 106.122 203.171 100.355 203.171C94.5876 203.171 89.0941 205.63 85.2533 209.933C83.5831 211.723 81.5458 213.131 79.281 214.061C77.2698 214.734 76.1851 216.91 76.8583 218.922C77.5316 220.933 79.7078 222.018 81.719 221.344C85.0165 220.096 87.9963 218.132 90.4437 215.594C92.862 212.599 96.5051 210.858 100.355 210.858C104.204 210.858 107.848 212.599 110.266 215.594C114.106 219.896 119.599 222.356 125.365 222.356C131.132 222.356 136.625 219.896 140.465 215.594C142.882 212.598 146.526 210.856 150.376 210.856C154.226 210.856 157.87 212.598 160.287 215.594C164.127 219.9 169.621 222.362 175.39 222.362C181.159 222.362 186.654 219.9 190.494 215.594C192.908 212.605 196.543 210.865 200.386 210.861C204.229 210.857 207.868 212.587 210.289 215.571C212.211 217.492 214.407 219.117 216.806 220.394C218.711 221.325 221.011 220.536 221.942 218.63C222.874 216.725 222.084 214.425 220.179 213.494L220.187 213.486Z" fill="url(#paint3_linear)"/>
<path d="M138 87.25V95.75C138 98.0972 139.791 100 142 100C144.209 100 146 98.0972 146 95.75V87.25C146 84.9028 144.209 83 142 83C139.791 83 138 84.9028 138 87.25Z" fill="url(#paint4_linear)"/>
<path d="M176.333 134.167H184C186.117 134.167 187.833 132.45 187.833 130.333C187.833 128.216 186.117 126.5 184 126.5H176.333C174.216 126.5 172.5 128.216 172.5 130.333C172.5 132.45 174.216 134.167 176.333 134.167Z" fill="url(#paint5_linear)"/>
<path d="M99.6668 126.5C97.5497 126.5 95.8335 128.216 95.8335 130.333C95.8335 132.45 97.5497 134.167 99.6668 134.167H107.334C109.451 134.167 111.167 132.45 111.167 130.333C111.167 128.216 109.451 126.5 107.334 126.5H99.6668Z" fill="url(#paint6_linear)"/>
<path d="M117.438 109.771C118.988 109.771 120.386 108.837 120.979 107.405C121.572 105.973 121.244 104.324 120.148 103.228L114.728 97.8075C113.224 96.3548 110.833 96.3756 109.354 97.8542C107.876 99.3329 107.855 101.724 109.308 103.228L114.728 108.648C115.447 109.367 116.421 109.771 117.438 109.771Z" fill="url(#paint7_linear)"/>
<path d="M174.359 97.8075C172.862 96.3111 170.436 96.3111 168.939 97.8075L163.519 103.228C162.522 104.19 162.122 105.616 162.473 106.956C162.824 108.296 163.871 109.343 165.211 109.694C166.551 110.044 167.976 109.645 168.939 108.648L174.359 103.228C175.856 101.731 175.856 99.3044 174.359 97.8075Z" fill="url(#paint8_linear)"/>
<path d="M49.8333 161H19.1666C17.0495 161 15.3333 162.716 15.3333 164.833V191.667C15.3333 193.784 17.0495 195.5 19.1666 195.5H49.8333C51.9503 195.5 53.6666 193.784 53.6666 191.667V164.833C53.6666 162.716 51.9503 161 49.8333 161ZM45.9999 187.833H22.9999V168.667H45.9999V187.833Z" fill="url(#paint9_linear)"/>
<path d="M49.8333 34.5H19.1666C17.0495 34.5 15.3333 36.2162 15.3333 38.3333V65.1667C15.3333 67.2838 17.0495 69 19.1666 69H49.8333C51.9503 69 53.6666 67.2838 53.6666 65.1667V38.3333C53.6666 36.2162 51.9503 34.5 49.8333 34.5ZM45.9999 61.3333H22.9999V42.1667H45.9999V61.3333Z" fill="url(#paint10_linear)"/>
<path d="M49.8333 118.833H19.1666C17.0495 118.833 15.3333 120.55 15.3333 122.667V149.5C15.3333 151.617 17.0495 153.333 19.1666 153.333H49.8333C51.9503 153.333 53.6666 151.617 53.6666 149.5V122.667C53.6666 120.55 51.9503 118.833 49.8333 118.833ZM45.9999 145.667H22.9999V126.5H45.9999V145.667Z" fill="url(#paint11_linear)"/>
<path d="M49.8333 76.6667H19.1666C17.0495 76.6667 15.3333 78.3829 15.3333 80.5V107.333C15.3333 109.45 17.0495 111.167 19.1666 111.167H49.8333C51.9503 111.167 53.6666 109.45 53.6666 107.333V80.5C53.6666 78.3829 51.9503 76.6667 49.8333 76.6667ZM45.9999 103.5H22.9999V84.3334H45.9999V103.5Z" fill="url(#paint12_linear)"/>
<defs>
<linearGradient x1="0" y1="96.6667" x2="230" y2="96.6667" gradientUnits="userSpaceOnUse">
<stop stop-color="#950B32"/>
<stop offset="1" stop-color="#E85649"/>
</linearGradient>
<linearGradient x1="76.6587" y1="165.235" x2="222.333" y2="165.235" gradientUnits="userSpaceOnUse">
<stop stop-color="#950B32"/>
<stop offset="1" stop-color="#E85649"/>
</linearGradient>
<linearGradient x1="76.6597" y1="188.235" x2="222.333" y2="188.235" gradientUnits="userSpaceOnUse">
<stop stop-color="#950B32"/>
<stop offset="1" stop-color="#E85649"/>
</linearGradient>
<linearGradient x1="76.6587" y1="211.235" x2="222.333" y2="211.235" gradientUnits="userSpaceOnUse">
<stop stop-color="#950B32"/>
<stop offset="1" stop-color="#E85649"/>
</linearGradient>
<linearGradient x1="138" y1="90.1449" x2="146" y2="90.1449" gradientUnits="userSpaceOnUse">
<stop stop-color="#950B32"/>
<stop offset="1" stop-color="#E85649"/>
</linearGradient>
<linearGradient x1="172.5" y1="129.722" x2="187.833" y2="129.722" gradientUnits="userSpaceOnUse">
<stop stop-color="#950B32"/>
<stop offset="1" stop-color="#E85649"/>
</linearGradient>
<linearGradient x1="95.8335" y1="129.722" x2="111.167" y2="129.722" gradientUnits="userSpaceOnUse">
<stop stop-color="#950B32"/>
<stop offset="1" stop-color="#E85649"/>
</linearGradient>
<linearGradient x1="108.231" y1="102.212" x2="121.271" y2="102.212" gradientUnits="userSpaceOnUse">
<stop stop-color="#950B32"/>
<stop offset="1" stop-color="#E85649"/>
</linearGradient>
<linearGradient x1="162.348" y1="102.205" x2="175.482" y2="102.205" gradientUnits="userSpaceOnUse">
<stop stop-color="#950B32"/>
<stop offset="1" stop-color="#E85649"/>
</linearGradient>
<linearGradient x1="15.3333" y1="175.5" x2="53.6666" y2="175.5" gradientUnits="userSpaceOnUse">
<stop stop-color="#950B32"/>
<stop offset="1" stop-color="#E85649"/>
</linearGradient>
<linearGradient x1="15.3333" y1="49" x2="53.6666" y2="49" gradientUnits="userSpaceOnUse">
<stop stop-color="#950B32"/>
<stop offset="1" stop-color="#E85649"/>
</linearGradient>
<linearGradient x1="15.3333" y1="133.333" x2="53.6666" y2="133.333" gradientUnits="userSpaceOnUse">
<stop stop-color="#950B32"/>
<stop offset="1" stop-color="#E85649"/>
</linearGradient>
<linearGradient x1="15.3333" y1="91.1667" x2="53.6666" y2="91.1667" gradientUnits="userSpaceOnUse">
<stop stop-color="#950B32"/>
<stop offset="1" stop-color="#E85649"/>
</linearGradient>
</defs>
</svg>
