<svg width="230" height="139" viewBox="0 0 230 139" fill="none" xmlns="http://www.w3.org/2000/svg">
<path d="M229.989 50.1502C229.783 46.2171 226.404 43.1361 222.297 43.1361H217.235L211.179 32.7727C208.381 27.9856 203.609 24.699 198.245 23.7004C200.55 21.1817 201.959 17.8318 201.959 14.1592C201.959 6.3519 195.595 0 187.773 0C179.952 0 173.588 6.3519 173.588 14.1592C173.588 17.8318 174.997 21.1817 177.302 23.7004C171.938 24.6992 167.166 27.9858 164.368 32.7729L158.311 43.1363H153.25C149.142 43.1363 145.764 46.2173 145.557 50.1506C145.45 52.205 146.17 54.1563 147.585 55.6449C148.98 57.1125 150.943 57.9541 152.97 57.9541H164.681C165.534 57.9541 166.327 57.5155 166.779 56.7934L170.454 50.9242V63.0091L164.285 61.7778C160.926 61.1072 157.479 61.9658 154.83 64.134C152.18 66.3022 150.66 69.5071 150.66 72.927C150.66 79.1965 155.77 84.2971 162.051 84.2971H213.495C219.776 84.2971 224.886 79.1965 224.886 72.927C224.886 69.5073 223.367 66.3023 220.717 64.1341C218.068 61.9661 214.621 61.1069 211.262 61.7779L205.093 63.0095V50.9246L208.768 56.7937C209.22 57.5159 210.013 57.9545 210.866 57.9545H222.577C224.604 57.9545 226.566 57.1128 227.962 55.6452C229.377 54.1562 230.097 52.205 229.989 50.1502ZM187.773 4.93911C192.867 4.93911 197.01 9.07525 197.01 14.1591C197.01 19.2429 192.867 23.3791 187.773 23.3791C182.68 23.3791 178.536 19.2429 178.536 14.1591C178.536 9.07525 182.68 4.93911 187.773 4.93911ZM155.609 72.9267C155.609 70.9925 156.468 69.1798 157.967 67.9535C159.465 66.7273 161.415 66.2419 163.315 66.6209L172.422 68.4391C172.428 68.4402 172.433 68.4412 172.438 68.4422L175.474 69.0482C172.498 70.2183 170.454 73.1195 170.454 76.3989C170.454 77.4448 170.66 78.4431 171.032 79.3576H162.051C158.499 79.3575 155.609 76.4726 155.609 72.9267ZM212.232 66.6209C212.655 66.5364 213.081 66.4948 213.504 66.4948C214.978 66.4948 216.415 67.0006 217.58 67.9535C219.078 69.1798 219.938 70.9925 219.938 72.9269C219.938 76.4728 217.048 79.3576 213.495 79.3576H178.367C176.732 79.3576 175.402 78.0303 175.402 76.3989C175.402 74.9933 176.404 73.7733 177.785 73.4975L212.232 66.6209ZM224.372 52.2447C223.9 52.7414 223.262 53.0149 222.577 53.0149H212.237L204.717 41.0042C204.131 40.07 202.997 39.6354 201.936 39.9393C200.875 40.2429 200.144 41.2115 200.144 42.3131V63.997L187.773 66.4666L175.402 63.997V42.3129C175.402 41.2113 174.671 40.2427 173.61 39.9391C172.549 39.6352 171.415 40.0697 170.83 41.004L163.309 53.0147H152.97C152.284 53.0147 151.647 52.7412 151.174 52.2445C150.703 51.7484 150.463 51.0964 150.499 50.4086C150.567 49.1221 151.8 48.0754 153.25 48.0754H159.732C160.612 48.0754 161.426 47.609 161.87 46.8502L168.642 35.2615C171.145 30.9788 175.786 28.3183 180.753 28.3183H194.794C199.761 28.3183 204.402 30.9788 206.904 35.2615L213.677 46.8502C214.12 47.6088 214.934 48.0754 215.814 48.0754H222.297C223.746 48.0754 224.98 49.1221 225.048 50.4084C225.084 51.0964 224.844 51.7486 224.372 52.2447Z" fill="url(#paint0_linear)"/>
<path d="M84.4426 50.1502C84.2362 46.2171 80.8575 43.1361 76.7503 43.1361H71.6884L65.6319 32.7727C62.8343 27.9856 58.0619 24.699 52.6976 23.7004C55.0032 21.1817 56.4119 17.8318 56.4119 14.1592C56.4119 6.3519 50.0484 0 42.2265 0C34.4047 0 28.0411 6.3519 28.0411 14.1592C28.0411 17.8318 29.4497 21.1817 31.7553 23.7004C26.3911 24.6992 21.6187 27.9858 18.8211 32.7729L12.7645 43.1363H7.70267C3.5955 43.1363 0.216732 46.2173 0.0105491 50.1506C-0.097161 52.205 0.622831 54.1563 2.03824 55.6449C3.43352 57.1125 5.39622 57.9541 7.42275 57.9541H19.134C19.9871 57.9541 20.78 57.5155 21.2321 56.7934L24.9071 50.9242V63.0091L18.7386 61.7778C15.3791 61.1072 11.9326 61.9658 9.28286 64.134C6.63315 66.3022 5.1135 69.5071 5.1135 72.927C5.1135 79.1965 10.2235 84.2971 16.5045 84.2971H67.9484C74.2294 84.2971 79.3395 79.1965 79.3395 72.927C79.3395 69.5073 77.8198 66.3023 75.1703 64.1341C72.5207 61.9661 69.0742 61.1069 65.7147 61.7779L59.546 63.0095V50.9246L63.2211 56.7937C63.6732 57.5159 64.4661 57.9545 65.3192 57.9545H77.0304C79.0569 57.9545 81.0196 57.1128 82.4149 55.6452C83.8301 54.1562 84.5503 52.205 84.4426 50.1502ZM42.2265 4.93911C47.3199 4.93911 51.4635 9.07525 51.4635 14.1591C51.4635 19.2429 47.3199 23.3791 42.2265 23.3791C37.1333 23.3791 32.9895 19.2429 32.9895 14.1591C32.9895 9.07525 37.1333 4.93911 42.2265 4.93911ZM10.0619 72.9267C10.0619 70.9925 10.9214 69.1798 12.42 67.9535C13.9185 66.7273 15.8677 66.2419 17.7679 66.6209L26.8754 68.4391C26.8807 68.4402 26.886 68.4412 26.8912 68.4422L29.9269 69.0482C26.9508 70.2183 24.9069 73.1195 24.9069 76.3989C24.9069 77.4448 25.1136 78.4431 25.4852 79.3576H16.5045C12.9521 79.3575 10.0619 76.4726 10.0619 72.9267ZM66.6849 66.6209C67.1083 66.5364 67.5341 66.4948 67.957 66.4948C69.4313 66.4948 70.8683 67.0006 72.033 67.9535C73.5315 69.1798 74.3911 70.9925 74.3911 72.9269C74.3911 76.4728 71.501 79.3576 67.9484 79.3576H32.8197C31.1853 79.3576 29.8555 78.0303 29.8555 76.3989C29.8555 74.9933 30.8575 73.7733 32.2383 73.4975L66.6849 66.6209ZM78.8255 52.2447C78.3534 52.7414 77.7156 53.0149 77.0302 53.0149H66.6902L59.1696 41.0042C58.5846 40.07 57.4506 39.6354 56.3896 39.9393C55.3285 40.2429 54.5975 41.2115 54.5975 42.3131V63.997L42.2263 66.4666L29.8555 63.997V42.3129C29.8555 41.2113 29.1243 40.2427 28.0633 39.9391C27.0024 39.6352 25.8681 40.0697 25.2832 41.004L17.7626 53.0147H7.42275C6.73724 53.0147 6.09972 52.7412 5.62748 52.2445C5.15589 51.7484 4.91606 51.0964 4.95218 50.4086C5.01965 49.1221 6.25361 48.0754 7.70267 48.0754H14.1856C15.0656 48.0754 15.8794 47.609 16.3228 46.8502L23.0953 35.2615C25.5982 30.9788 30.2387 28.3183 35.2059 28.3183H49.2469C54.2141 28.3183 58.8548 30.9788 61.3575 35.2615L68.1302 46.8502C68.5736 47.6088 69.3874 48.0754 70.2674 48.0754H76.7503C78.1995 48.0754 79.4335 49.1221 79.501 50.4084C79.5369 51.0964 79.2971 51.7486 78.8255 52.2447Z" fill="url(#paint1_linear)"/>
<path d="M177.875 88.1432C177.568 82.2854 172.535 77.6967 166.418 77.6967H158.879L149.859 62.2619C145.692 55.1322 138.584 50.2373 130.595 48.75C134.029 44.9988 136.127 40.0095 136.127 34.5398C136.127 22.9119 126.65 13.4517 115 13.4517C103.35 13.4517 93.8727 22.9119 93.8727 34.5398C93.8727 40.0095 95.9706 44.9988 99.4046 48.75C91.4153 50.2375 84.3075 55.1324 80.1407 62.2622L71.1204 77.697H63.5814C57.4644 77.697 52.4322 82.2856 52.1251 88.1437C51.9647 91.2035 53.037 94.1097 55.145 96.3267C57.2231 98.5125 60.1463 99.766 63.1645 99.766H80.6068C81.8773 99.766 83.0582 99.1127 83.7316 98.0372L89.205 89.296V107.295L80.0179 105.461C75.0144 104.462 69.8813 105.741 65.9349 108.97C61.9885 112.199 59.7252 116.972 59.7252 122.066C59.7252 131.403 67.3359 139 76.6906 139H153.309C162.664 139 170.275 131.403 170.275 122.066C170.275 116.973 168.011 112.199 164.065 108.97C160.119 105.741 154.986 104.462 149.982 105.461L140.795 107.295V89.2964L146.268 98.0377C146.942 99.1132 148.123 99.7665 149.393 99.7665H166.835C169.854 99.7665 172.777 98.513 174.855 96.3271C176.963 94.1095 178.035 91.2035 177.875 88.1432ZM115 20.8078C122.586 20.8078 128.757 26.9679 128.757 34.5396C128.757 42.1112 122.586 48.2714 115 48.2714C107.414 48.2714 101.243 42.1112 101.243 34.5396C101.243 26.9679 107.414 20.8078 115 20.8078ZM67.0952 122.065C67.0952 119.185 68.3753 116.485 70.6072 114.659C72.8391 112.832 75.7421 112.109 78.5722 112.674L92.1366 115.382C92.1444 115.383 92.1523 115.385 92.1601 115.386L96.6814 116.289C92.2488 118.032 89.2048 122.353 89.2048 127.237C89.2048 128.795 89.5126 130.281 90.0661 131.643H76.6906C71.3997 131.643 67.0952 127.347 67.0952 122.065ZM151.427 112.674C152.058 112.548 152.692 112.486 153.322 112.486C155.518 112.486 157.658 113.239 159.393 114.659C161.624 116.485 162.905 119.185 162.905 122.066C162.905 127.347 158.6 131.643 153.309 131.643H100.99C98.5555 131.643 96.575 129.667 96.575 127.237C96.575 125.143 98.0674 123.326 100.124 122.916L151.427 112.674ZM169.509 91.2626C168.806 92.0023 167.856 92.4097 166.835 92.4097H151.435L140.234 74.5215C139.363 73.1302 137.674 72.4828 136.094 72.9355C134.514 73.3876 133.425 74.8302 133.425 76.4709V108.766L115 112.444L96.575 108.766V76.4707C96.575 74.83 95.486 73.3874 93.9058 72.9352C92.3257 72.4826 90.6363 73.1297 89.7652 74.5212L78.5643 92.4094H63.1645C62.1436 92.4094 61.1941 92.0021 60.4907 91.2623C59.7884 90.5235 59.4312 89.5524 59.485 88.528C59.5854 86.6119 61.4233 85.0531 63.5814 85.0531H73.2368C74.5474 85.0531 75.7595 84.3584 76.4199 83.2282L86.5067 65.9685C90.2344 59.5901 97.1457 55.6277 104.544 55.6277H125.456C132.854 55.6277 139.765 59.5901 143.493 65.9685L153.58 83.2282C154.24 84.3581 155.452 85.0531 156.763 85.0531H166.418C168.577 85.0531 170.415 86.6119 170.515 88.5277C170.569 89.5524 170.211 90.5237 169.509 91.2626Z" fill="url(#paint2_linear)"/>
<defs>
<linearGradient x1="0" y1="58.4203" x2="230" y2="58.4203" gradientUnits="userSpaceOnUse">
<stop stop-color="#950B32"/>
<stop offset="1" stop-color="#E85649"/>
</linearGradient>
<linearGradient x1="0" y1="58.4203" x2="230" y2="58.4203" gradientUnits="userSpaceOnUse">
<stop stop-color="#950B32"/>
<stop offset="1" stop-color="#E85649"/>
</linearGradient>
<linearGradient x1="0" y1="58.4203" x2="230" y2="58.4203" gradientUnits="userSpaceOnUse">
<stop stop-color="#950B32"/>
<stop offset="1" stop-color="#E85649"/>
</linearGradient>
</defs>
</svg>
