<svg width="210" height="210" viewBox="0 0 210 210" fill="none" xmlns="http://www.w3.org/2000/svg">
<path d="M18.8038 158.979C16.4938 158.979 14.2538 157.763 13.055 155.601C4.52375 140.201 0 122.701 0 105C0 47.1012 47.1013 0 105 0C121.879 0 138.618 4.1125 153.414 11.8825C156.625 13.5713 157.859 17.535 156.17 20.7463C154.499 23.9575 150.535 25.2 147.306 23.5025C134.383 16.7125 119.761 13.125 105 13.125C54.3375 13.125 13.125 54.3375 13.125 105C13.125 120.479 17.0713 135.774 24.5438 149.24C26.2938 152.407 25.1475 156.406 21.9888 158.165C20.9738 158.716 19.88 158.979 18.8038 158.979Z" fill="black"/>
<path d="M18.8038 158.979C16.4938 158.979 14.2538 157.763 13.055 155.601C4.52375 140.201 0 122.701 0 105C0 47.1012 47.1013 0 105 0C121.879 0 138.618 4.1125 153.414 11.8825C156.625 13.5713 157.859 17.535 156.17 20.7463C154.499 23.9575 150.535 25.2 147.306 23.5025C134.383 16.7125 119.761 13.125 105 13.125C54.3375 13.125 13.125 54.3375 13.125 105C13.125 120.479 17.0713 135.774 24.5438 149.24C26.2938 152.407 25.1475 156.406 21.9888 158.165C20.9738 158.716 19.88 158.979 18.8038 158.979Z" fill="url(#paint0_linear)"/>
<path d="M105 210C85.5487 210 66.5699 204.627 50.1199 194.469C47.0312 192.57 46.0774 188.519 47.9762 185.439C49.8837 182.367 53.9349 181.396 57.0062 183.304C71.3912 192.176 87.9899 196.875 105 196.875C155.662 196.875 196.875 155.662 196.875 105C196.875 87.9637 192.185 71.4 183.304 57.1025C181.396 54.0225 182.35 49.98 185.421 48.0637C188.501 46.1387 192.544 47.1012 194.451 50.1812C204.627 66.5525 210 85.5137 210 105C210 162.899 162.899 210 105 210V210Z" fill="black"/>
<path d="M105 210C85.5487 210 66.5699 204.627 50.1199 194.469C47.0312 192.57 46.0774 188.519 47.9762 185.439C49.8837 182.367 53.9349 181.396 57.0062 183.304C71.3912 192.176 87.9899 196.875 105 196.875C155.662 196.875 196.875 155.662 196.875 105C196.875 87.9637 192.185 71.4 183.304 57.1025C181.396 54.0225 182.35 49.98 185.421 48.0637C188.501 46.1387 192.544 47.1012 194.451 50.1812C204.627 66.5525 210 85.5137 210 105C210 162.899 162.899 210 105 210V210Z" fill="url(#paint1_linear)"/>
<path d="M80.9375 98.4375C77.315 98.4375 74.375 95.4975 74.375 91.875C74.375 87.0537 70.455 83.125 65.625 83.125C60.795 83.125 56.875 87.0537 56.875 91.875C56.875 95.4975 53.935 98.4375 50.3125 98.4375C46.69 98.4375 43.75 95.4975 43.75 91.875C43.75 79.8175 53.5588 70 65.625 70C77.6913 70 87.5 79.8175 87.5 91.875C87.5 95.4975 84.56 98.4375 80.9375 98.4375Z" fill="black"/>
<path d="M80.9375 98.4375C77.315 98.4375 74.375 95.4975 74.375 91.875C74.375 87.0537 70.455 83.125 65.625 83.125C60.795 83.125 56.875 87.0537 56.875 91.875C56.875 95.4975 53.935 98.4375 50.3125 98.4375C46.69 98.4375 43.75 95.4975 43.75 91.875C43.75 79.8175 53.5588 70 65.625 70C77.6913 70 87.5 79.8175 87.5 91.875C87.5 95.4975 84.56 98.4375 80.9375 98.4375Z" fill="url(#paint2_linear)"/>
<path d="M159.687 98.4375C156.065 98.4375 153.125 95.4975 153.125 91.875C153.125 87.0537 149.205 83.125 144.375 83.125C139.545 83.125 135.625 87.0537 135.625 91.875C135.625 95.4975 132.685 98.4375 129.062 98.4375C125.44 98.4375 122.5 95.4975 122.5 91.875C122.5 79.8175 132.309 70 144.375 70C156.441 70 166.25 79.8175 166.25 91.875C166.25 95.4975 163.31 98.4375 159.687 98.4375Z" fill="black"/>
<path d="M159.687 98.4375C156.065 98.4375 153.125 95.4975 153.125 91.875C153.125 87.0537 149.205 83.125 144.375 83.125C139.545 83.125 135.625 87.0537 135.625 91.875C135.625 95.4975 132.685 98.4375 129.062 98.4375C125.44 98.4375 122.5 95.4975 122.5 91.875C122.5 79.8175 132.309 70 144.375 70C156.441 70 166.25 79.8175 166.25 91.875C166.25 95.4975 163.31 98.4375 159.687 98.4375Z" fill="url(#paint3_linear)"/>
<path d="M105 157.5C85.8898 157.5 67.9348 150.062 54.4248 136.544C51.861 133.98 51.861 129.824 54.4248 127.26C56.9885 124.696 61.1448 124.696 63.7085 127.26C74.7335 138.302 89.3985 144.375 105 144.375C120.601 144.375 135.266 138.302 146.3 127.269C148.864 124.705 153.02 124.705 155.584 127.269C158.147 129.832 158.147 133.989 155.584 136.552C142.065 150.062 124.11 157.5 105 157.5Z" fill="black"/>
<path d="M105 157.5C85.8898 157.5 67.9348 150.062 54.4248 136.544C51.861 133.98 51.861 129.824 54.4248 127.26C56.9885 124.696 61.1448 124.696 63.7085 127.26C74.7335 138.302 89.3985 144.375 105 144.375C120.601 144.375 135.266 138.302 146.3 127.269C148.864 124.705 153.02 124.705 155.584 127.269C158.147 129.832 158.147 133.989 155.584 136.552C142.065 150.062 124.11 157.5 105 157.5Z" fill="url(#paint4_linear)"/>
<path d="M175 70.315C173.687 70.315 172.375 69.9212 171.237 69.1337C166.031 65.485 140 46.4362 140 28.875C140 17.605 149.599 8.44373 161.394 8.44373C166.46 8.44373 171.237 10.15 175 13.09C178.763 10.15 183.54 8.44373 188.606 8.44373C200.401 8.43498 210 17.605 210 28.875C210 46.4362 183.969 65.4937 178.763 69.1337C177.625 69.9212 176.313 70.315 175 70.315ZM161.394 21.56C156.835 21.56 153.125 24.8412 153.125 28.8662C153.125 35.8662 165.086 47.915 175 55.5975C185.089 47.81 196.875 35.945 196.875 28.8662C196.875 24.8412 193.165 21.56 188.606 21.56C185.229 21.56 182.227 23.3362 180.959 26.0837C178.806 30.7212 171.202 30.7212 169.05 26.0837C167.772 23.3362 164.771 21.56 161.394 21.56V21.56Z" fill="black"/>
<path d="M175 70.315C173.687 70.315 172.375 69.9212 171.237 69.1337C166.031 65.485 140 46.4362 140 28.875C140 17.605 149.599 8.44373 161.394 8.44373C166.46 8.44373 171.237 10.15 175 13.09C178.763 10.15 183.54 8.44373 188.606 8.44373C200.401 8.43498 210 17.605 210 28.875C210 46.4362 183.969 65.4937 178.763 69.1337C177.625 69.9212 176.313 70.315 175 70.315ZM161.394 21.56C156.835 21.56 153.125 24.8412 153.125 28.8662C153.125 35.8662 165.086 47.915 175 55.5975C185.089 47.81 196.875 35.945 196.875 28.8662C196.875 24.8412 193.165 21.56 188.606 21.56C185.229 21.56 182.227 23.3362 180.959 26.0837C178.806 30.7212 171.202 30.7212 169.05 26.0837C167.772 23.3362 164.771 21.56 161.394 21.56V21.56Z" fill="url(#paint5_linear)"/>
<path d="M35 210.315C33.6875 210.315 32.375 209.921 31.2375 209.134C26.0312 205.485 0 186.436 0 168.875C0 157.605 9.59875 148.444 21.3937 148.444C26.46 148.444 31.2375 150.15 35 153.09C38.7625 150.15 43.54 148.444 48.6062 148.444C60.4012 148.435 70 157.605 70 168.875C70 186.436 43.9687 205.494 38.7625 209.134C37.625 209.921 36.3125 210.315 35 210.315V210.315ZM21.3937 161.56C16.835 161.56 13.125 164.841 13.125 168.866C13.125 175.866 25.0862 187.915 35 195.597C45.0887 187.81 56.875 175.945 56.875 168.866C56.875 164.841 53.165 161.56 48.6062 161.56C45.2287 161.56 42.2275 163.336 40.9588 166.084C38.8063 170.721 31.2025 170.721 29.05 166.084C27.7725 163.336 24.7712 161.56 21.3937 161.56Z" fill="black"/>
<path d="M35 210.315C33.6875 210.315 32.375 209.921 31.2375 209.134C26.0312 205.485 0 186.436 0 168.875C0 157.605 9.59875 148.444 21.3937 148.444C26.46 148.444 31.2375 150.15 35 153.09C38.7625 150.15 43.54 148.444 48.6062 148.444C60.4012 148.435 70 157.605 70 168.875C70 186.436 43.9687 205.494 38.7625 209.134C37.625 209.921 36.3125 210.315 35 210.315V210.315ZM21.3937 161.56C16.835 161.56 13.125 164.841 13.125 168.866C13.125 175.866 25.0862 187.915 35 195.597C45.0887 187.81 56.875 175.945 56.875 168.866C56.875 164.841 53.165 161.56 48.6062 161.56C45.2287 161.56 42.2275 163.336 40.9588 166.084C38.8063 170.721 31.2025 170.721 29.05 166.084C27.7725 163.336 24.7712 161.56 21.3937 161.56Z" fill="url(#paint6_linear)"/>
<defs>
<linearGradient id="paint0_linear" x1="0" y1="66.8172" x2="156.926" y2="66.8172" gradientUnits="userSpaceOnUse">
<stop stop-color="#950B32"/>
<stop offset="1" stop-color="#E85649"/>
</linearGradient>
<linearGradient id="paint1_linear" x1="47" y1="115.548" x2="210" y2="115.548" gradientUnits="userSpaceOnUse">
<stop stop-color="#950B32"/>
<stop offset="1" stop-color="#E85649"/>
</linearGradient>
<linearGradient id="paint2_linear" x1="43.75" y1="81.952" x2="87.5" y2="81.952" gradientUnits="userSpaceOnUse">
<stop stop-color="#950B32"/>
<stop offset="1" stop-color="#E85649"/>
</linearGradient>
<linearGradient id="paint3_linear" x1="122.5" y1="81.952" x2="166.25" y2="81.952" gradientUnits="userSpaceOnUse">
<stop stop-color="#950B32"/>
<stop offset="1" stop-color="#E85649"/>
</linearGradient>
<linearGradient id="paint4_linear" x1="52.502" y1="138.855" x2="157.506" y2="138.855" gradientUnits="userSpaceOnUse">
<stop stop-color="#950B32"/>
<stop offset="1" stop-color="#E85649"/>
</linearGradient>
<linearGradient id="paint5_linear" x1="140" y1="34.4476" x2="210" y2="34.4476" gradientUnits="userSpaceOnUse">
<stop stop-color="#950B32"/>
<stop offset="1" stop-color="#E85649"/>
</linearGradient>
<linearGradient id="paint6_linear" x1="0" y1="174.448" x2="70" y2="174.448" gradientUnits="userSpaceOnUse">
<stop stop-color="#950B32"/>
<stop offset="1" stop-color="#E85649"/>
</linearGradient>
</defs>
</svg>
