<svg width="231" height="230" viewBox="0 0 231 230" fill="none" xmlns="http://www.w3.org/2000/svg">
<path d="M48.2258 155.807C42.8171 155.807 37.6203 157.473 33.1897 160.625L37.4935 166.669C40.658 164.416 44.3676 163.226 48.2258 163.226C58.4528 163.226 66.7742 171.547 66.7742 181.774C66.7742 185.633 65.5841 189.342 63.3308 192.507L69.3753 196.81C72.5271 192.38 74.1936 187.183 74.1936 181.774C74.1936 167.459 62.541 155.807 48.2258 155.807Z" fill="url(#paint0_linear)"/>
<path d="M48.2258 200.323C37.9988 200.323 29.6774 192.001 29.6774 181.774C29.6774 177.916 30.8675 174.207 33.1208 171.042L27.0763 166.738C23.9245 171.169 22.2581 176.366 22.2581 181.774C22.2581 196.09 33.9106 207.742 48.2258 207.742C53.6345 207.742 58.8313 206.076 63.2619 202.924L58.9581 196.879C55.7936 199.133 52.084 200.323 48.2258 200.323Z" fill="url(#paint1_linear)"/>
<path d="M218.871 74.1935C214.042 74.1935 209.961 77.3054 208.425 81.6128H177.378C175.842 77.3054 171.761 74.1935 166.932 74.1935C160.797 74.1935 155.803 79.1874 155.803 85.3225C155.803 88.1156 156.875 90.6425 158.581 92.6005L135.439 133.742C134.825 133.633 134.197 133.548 133.548 133.548C132.139 133.548 130.799 133.838 129.552 134.32L120.898 124.222C121.841 122.589 122.419 120.724 122.419 118.71C122.419 112.574 117.425 107.581 111.29 107.581C108.43 107.581 105.845 108.696 103.871 110.473V88.9434C103.871 80.6854 98.5581 73.5486 90.6533 71.1739L66.7741 64.0136V58.3422C73.4925 53.6381 77.9031 45.8782 77.9031 37.0967V27.1071C79.988 25.1743 81.7541 22.8558 83.0818 20.2021L86.8477 12.6759L77.8035 9.66C74.0341 8.40654 70.4584 6.65495 67.1563 4.45958C62.7819 1.53966 57.701 0 52.4553 0C37.8503 0 25.9605 11.8789 25.9532 26.484L25.946 37.7271C25.9424 44.4943 28.5725 50.8559 33.3581 55.6415C34.5155 56.7989 35.769 57.826 37.0967 58.728V64.0136L13.2175 71.1775C5.31273 73.5486 0 80.689 0 88.947V126.129H98.6251L79.7055 145.049L74.9325 140.274L66.9824 145.576C64.9229 144.507 62.7746 143.616 60.5611 142.911L58.6828 133.548H37.7651L35.8867 142.911C33.6696 143.612 31.5214 144.507 29.4655 145.576L21.5154 140.274L6.72559 155.064L12.0275 163.014C10.9588 165.073 10.0676 167.221 9.36294 169.435L0 171.317V192.235L9.36294 194.113C10.0639 196.33 10.9588 198.478 12.0275 200.534L6.72559 208.484L21.5154 223.274L29.4655 217.972C31.525 219.041 33.6733 219.932 35.8867 220.637L37.7687 230H58.6864L60.5648 220.637C62.7819 219.936 64.9302 219.041 66.9861 217.972L74.9361 223.274L89.7259 208.484L84.424 200.534C85.4928 198.475 86.3839 196.326 87.0886 194.113L96.4515 192.231V171.313L87.0886 169.435C86.3876 167.218 85.4928 165.07 84.424 163.014L89.7259 155.064L84.9512 150.294L106.523 128.723C107.974 129.42 109.577 129.839 111.29 129.839C112.699 129.839 114.04 129.549 115.286 129.067L123.941 139.165C122.997 140.797 122.419 142.663 122.419 144.677C122.419 150.812 127.413 155.806 133.548 155.806C139.683 155.806 144.677 150.812 144.677 144.677C144.677 141.884 143.605 139.357 141.899 137.399L165.039 96.2595C165.658 96.3664 166.287 96.4515 166.935 96.4515C171.764 96.4515 175.845 93.3396 177.381 89.0322H208.428C209.964 93.3396 214.045 96.4515 218.874 96.4515C225.009 96.4515 230.003 91.4576 230.003 85.3225C230.003 79.1874 225.006 74.1935 218.871 74.1935ZM51.546 92.7418H52.3212L55.2068 118.71H48.6605L51.546 92.7418ZM52.9697 85.3225H50.8975L48.262 77.4213C49.3977 77.722 50.6149 77.9031 51.9354 77.9031C53.2559 77.9031 54.4731 77.722 55.6034 77.4213L52.9697 85.3225ZM52.4553 7.41935C56.2356 7.41935 59.8927 8.5279 63.0427 10.6236C66.8846 13.1922 71.0616 15.2318 75.4542 16.6935L76.3816 17.0051C73.5595 22.537 67.9606 25.9677 61.7476 25.9677C58.4944 25.9677 55.3372 25.0113 52.6292 23.2072L44.7878 17.9778L42.078 19.3309C39.5221 20.6115 36.7562 21.4864 33.9323 21.9284C35.9809 13.607 43.5108 7.41935 52.4553 7.41935ZM33.3689 29.4799C37.1112 29.0796 40.7955 28.078 44.2263 26.5202L48.512 29.3803C54.993 33.6986 63.5426 34.4594 70.4838 31.7514V37.0967C70.4838 47.3237 62.1153 55.6451 51.8286 55.6451H51.2707C46.485 55.6451 41.9892 53.783 38.6074 50.3994C35.2274 47.0158 33.3653 42.5163 33.3689 37.7343V29.4799ZM51.267 63.0644H51.8249C54.4424 63.0644 56.9656 62.6678 59.3512 61.9523V65.7507C58.4346 67.1708 55.8788 70.4838 51.9354 70.4838C47.9921 70.4838 45.4363 67.1708 44.5161 65.7507V62.1334C46.6897 62.7348 48.9521 63.0644 51.267 63.0644ZM7.41935 88.947C7.41935 83.9911 10.6055 79.7091 15.3513 78.2853L38.4281 71.3623L44.4491 89.4288L41.1959 118.71H29.6774V89.0322H22.258V118.71H7.41935V88.947ZM96.4515 118.71H81.6128V89.0322H74.1935V118.71H62.675L59.4218 89.4288L65.4428 71.3623L88.5195 78.2853C93.2653 79.7055 96.4515 83.9911 96.4515 88.947V118.71ZM89.0322 177.392V186.152L81.1237 187.732L80.5477 189.998C79.7543 193.108 78.5263 196.071 76.8978 198.804L75.7041 200.811L80.1764 207.53L73.9852 213.721L67.2668 209.249L65.2598 210.442C62.5265 212.071 59.5631 213.303 56.453 214.092L54.187 214.668L52.6074 222.58H43.8477L42.2682 214.672L40.0022 214.096C36.8921 213.303 33.9287 212.074 31.1953 210.446L29.1883 209.252L22.47 213.725L16.2787 207.533L20.7528 200.815L19.5573 198.808C17.9289 196.075 16.6972 193.111 15.9074 190.001L15.3314 187.735L7.41935 186.156V177.396L15.3278 175.816L15.9038 173.55C16.6972 170.44 17.9253 167.477 19.5537 164.744L20.7474 162.737L16.2751 156.018L22.4663 149.827L29.1847 154.301L31.1917 153.106C33.925 151.477 36.8884 150.245 39.9985 149.456L42.2646 148.88L43.8441 140.968H52.6038L54.1833 148.876L56.4493 149.452C59.5595 150.245 62.5228 151.473 65.2562 153.102L67.2632 154.296L73.9815 149.823L80.1728 156.015L75.6987 162.733L76.8942 164.74C78.5226 167.473 79.7544 170.437 80.5441 173.547L81.1201 175.813L89.0322 177.392ZM107.581 118.71C107.581 116.663 109.243 115 111.29 115C113.337 115 115 116.663 115 118.71C115 120.758 113.337 122.419 111.29 122.419C109.243 122.419 107.581 120.758 107.581 118.71ZM133.548 148.387C131.501 148.387 129.839 146.726 129.839 144.677C129.839 142.63 131.501 140.968 133.548 140.968C135.595 140.968 137.258 142.63 137.258 144.677C137.258 146.726 135.595 148.387 133.548 148.387ZM166.935 89.0322C164.888 89.0322 163.226 87.3711 163.226 85.3225C163.226 83.2756 164.888 81.6128 166.935 81.6128C168.982 81.6128 170.645 83.2756 170.645 85.3225C170.645 87.3711 168.982 89.0322 166.935 89.0322ZM218.871 89.0322C216.824 89.0322 215.161 87.3711 215.161 85.3225C215.161 83.2756 216.824 81.6128 218.871 81.6128C220.918 81.6128 222.58 83.2756 222.58 85.3225C222.58 87.3711 220.918 89.0322 218.871 89.0322Z" fill="url(#paint2_linear)"/>
<path d="M215.161 100.161H192.903V222.58H185.484V118.71H163.226V222.58H155.806V174.355H133.548V222.58H126.129V159.516H103.871V222.58H96.4514V230H230V222.58H215.161V100.161ZM200.322 107.58H207.742V222.58H200.322V107.58ZM170.645 126.129H178.064V222.58H170.645V126.129ZM140.967 181.774H148.387V222.58H140.967V181.774ZM111.29 166.935H118.709V222.58H111.29V166.935Z" fill="url(#paint3_linear)"/>
<path d="M59.3553 181.775C59.3553 175.64 54.3613 170.646 48.2261 170.646C42.0909 170.646 37.0969 175.64 37.0969 181.775C37.0969 187.91 42.0909 192.904 48.2261 192.904C54.3613 192.904 59.3553 187.91 59.3553 181.775ZM44.5164 181.775C44.5164 179.728 46.1792 178.065 48.2261 178.065C50.273 178.065 51.9359 179.728 51.9359 181.775C51.9359 183.823 50.273 185.484 48.2261 185.484C46.1792 185.484 44.5164 183.823 44.5164 181.775Z" fill="url(#paint4_linear)"/>
<path d="M222.58 0H163.226C159.134 0 155.806 3.32748 155.806 7.41935V14.8387H107.58C103.489 14.8387 100.161 18.1662 100.161 22.258V59.3548C100.161 63.4466 103.489 66.7741 107.58 66.7741H118.71V81.6128L138.493 66.7741H166.935C171.027 66.7741 174.355 63.4466 174.355 59.3548V51.9354H185.484V66.7741L205.267 51.9354H222.58C226.672 51.9354 230 48.6079 230 44.5161V7.41935C230 3.32748 226.672 0 222.58 0ZM166.935 59.3548H136.023L126.129 66.7741V59.3548H107.58L107.573 22.258H166.935V59.3548ZM222.58 44.5161H202.797L192.903 51.9354V44.5161H174.355V22.258C174.355 18.1662 171.027 14.8387 166.935 14.8387H163.226V7.41935H222.58V44.5161Z" fill="url(#paint5_linear)"/>
<defs>
<linearGradient x1="33.1897" y1="173.04" x2="74.1936" y2="173.04" gradientUnits="userSpaceOnUse">
<stop stop-color="#950B32"/>
<stop offset="1" stop-color="#E85649"/>
</linearGradient>
<linearGradient x1="22.2581" y1="183.972" x2="63.2619" y2="183.972" gradientUnits="userSpaceOnUse">
<stop stop-color="#950B32"/>
<stop offset="1" stop-color="#E85649"/>
</linearGradient>
<linearGradient x1="0" y1="96.6666" x2="230.003" y2="96.6666" gradientUnits="userSpaceOnUse">
<stop stop-color="#950B32"/>
<stop offset="1" stop-color="#E85649"/>
</linearGradient>
<linearGradient x1="96.4514" y1="154.731" x2="230" y2="154.731" gradientUnits="userSpaceOnUse">
<stop stop-color="#950B32"/>
<stop offset="1" stop-color="#E85649"/>
</linearGradient>
<linearGradient x1="37.0969" y1="180" x2="59.3553" y2="180" gradientUnits="userSpaceOnUse">
<stop stop-color="#950B32"/>
<stop offset="1" stop-color="#E85649"/>
</linearGradient>
<linearGradient x1="100.161" y1="34.301" x2="230" y2="34.301" gradientUnits="userSpaceOnUse">
<stop stop-color="#950B32"/>
<stop offset="1" stop-color="#E85649"/>
</linearGradient>
</defs>
</svg>
