<svg width="186" height="188" viewBox="0 0 186 188" fill="none" xmlns="http://www.w3.org/2000/svg">
<path d="M146.115 11.513C140.071 4.7203 131.693 0.979492 122.524 0.979492C112.289 0.979492 103.418 5.81874 96.8684 14.9736C96.3772 15.66 95.9179 16.3464 95.4873 17.0259C95.0571 16.346 94.5978 15.66 94.1065 14.9736C87.5566 5.81874 78.6851 0.979492 68.4507 0.979492C59.2816 0.979492 50.9032 4.7203 44.8594 11.5126C39.1241 17.9586 35.9651 26.5761 35.9651 35.7775C35.9651 45.7768 39.8454 55.0037 48.1755 64.8159C55.4438 73.3767 65.8694 82.1762 77.9417 92.3656C82.4027 96.1311 87.0159 100.025 91.918 104.273C92.942 105.161 94.2144 105.605 95.4869 105.605C96.7591 105.605 98.0315 105.161 99.0559 104.273C103.957 100.026 108.57 96.1322 113.031 92.3674C120.784 85.8233 127.479 80.1719 133.29 74.6902C144.571 64.0467 155.01 51.966 155.01 35.7779C155.01 26.5761 151.851 17.959 146.115 11.513ZM125.811 66.7628C120.22 72.0377 113.631 77.5989 106.002 84.0384C102.607 86.9028 99.1264 89.8409 95.4873 92.9615C91.8475 89.8413 88.3654 86.9024 84.9713 84.0373C61.2078 63.9802 46.8637 51.8737 46.8637 35.7779C46.863 22.1529 56.1433 11.8785 68.4503 11.8785C75.0253 11.8785 80.6171 14.9736 85.0701 21.0777C88.7248 26.087 90.2251 31.2802 90.2353 31.3151C90.8893 33.6758 93.0375 35.3102 95.4869 35.3102C97.9363 35.3102 100.085 33.6758 100.739 31.3151C100.792 31.1207 106.309 11.8785 122.524 11.8785C134.831 11.8785 144.111 22.1533 144.111 35.7779C144.111 45.65 138.98 54.3373 125.811 66.7628Z" fill="url(#paint0_linear)"/>
<path d="M169.652 110.732C165.132 110.732 160.771 112.63 157.689 115.938L141.673 133.132C139.603 126.477 133.386 121.63 126.059 121.63H100.885C97.3608 121.63 93.9623 120.348 91.3163 118.02C77.086 105.497 55.6964 105.387 41.3309 117.673C38.3684 113.479 33.487 110.732 27.9726 110.732H5.44933C2.43997 110.732 0 113.172 0 116.181V181.572C0 184.581 2.43961 187.021 5.44933 187.021H27.9726C32.8664 187.021 37.2616 184.857 40.2601 181.438L43.4871 182.345C54.5253 185.448 65.9355 187.021 77.4014 187.021H126.058C138.001 187.021 149.408 181.317 156.574 171.763L182.735 136.881C182.736 136.881 182.736 136.88 182.737 136.879C184.872 134.033 186 130.644 186 127.079C186 118.065 178.666 110.732 169.652 110.732ZM33.422 170.673C33.422 173.678 30.9776 176.122 27.9726 176.122H10.8983V121.63H27.9726C30.9773 121.63 33.422 124.074 33.422 127.079V170.673ZM174.017 130.341C174.017 130.342 174.017 130.342 174.017 130.342L147.855 165.224C142.737 172.049 134.589 176.123 126.058 176.123H77.4025C66.9337 176.123 56.5154 174.686 46.4372 171.853L44.3061 171.254C44.313 171.061 44.321 170.868 44.321 170.673V129.543L48.1185 126.201C58.3798 117.171 73.8557 117.17 84.1178 126.201C88.7546 130.281 94.709 132.528 100.886 132.528H126.059C129.064 132.528 131.509 134.973 131.509 137.977C131.509 140.982 129.064 143.427 126.059 143.427H87.3306C84.3213 143.427 81.8813 145.866 81.8813 148.876C81.8813 151.886 84.3209 154.325 87.3306 154.325H129.711C134.231 154.325 138.591 152.428 141.673 149.12L165.663 123.366C166.707 122.247 168.123 121.63 169.652 121.63C172.657 121.63 175.102 124.074 175.102 127.079C175.102 128.268 174.727 129.395 174.017 130.341Z" fill="url(#paint1_linear)"/>
<defs>
<linearGradient x1="35.9651" y1="44.9524" x2="155.01" y2="44.9524" gradientUnits="userSpaceOnUse">
<stop stop-color="#950B32"/>
<stop offset="1" stop-color="#E85649"/>
</linearGradient>
<linearGradient x1="0" y1="141.526" x2="186" y2="141.526" gradientUnits="userSpaceOnUse">
<stop stop-color="#950B32"/>
<stop offset="1" stop-color="#E85649"/>
</linearGradient>
</defs>
</svg>
