<svg width="230" height="230" viewBox="0 0 230 230" fill="none" xmlns="http://www.w3.org/2000/svg">
<path d="M60.6915 85.8245L7.66894 32.802C5.91429 31.0487 3.07029 31.0482 1.31565 32.802C-0.438549 34.5562 -0.438549 37.4006 1.31565 39.1552L53.0202 90.8589L53.0112 97.0496C53.0076 99.5306 55.0161 101.545 57.4966 101.548C57.4989 101.548 57.5011 101.548 57.5034 101.548C59.9813 101.548 61.992 99.5414 61.9956 97.063L62.0072 89.0077C62.009 87.8141 61.5356 86.6686 60.6915 85.8245Z" fill="url(#paint0_linear)"/>
<path d="M101.465 53.0046C101.463 53.0046 101.461 53.0046 101.458 53.0046L90.8592 53.0194L39.156 1.31531C37.4018 -0.438437 34.5574 -0.438437 32.8027 1.31531C31.0485 3.06951 31.0485 5.91395 32.8027 7.6686L85.8252 60.6907C86.668 61.533 87.8103 62.0064 89.0017 62.0064C89.0035 62.0064 89.0062 62.0064 89.008 62.0064L101.472 61.9889C103.953 61.9853 105.961 59.9715 105.957 57.4905C105.954 55.0112 103.944 53.0046 101.465 53.0046Z" fill="url(#paint1_linear)"/>
<path d="M184.041 14.4716C182.287 12.7178 179.442 12.7178 177.688 14.4716L139.14 53.0194L132.949 53.0104C132.927 53.0104 132.907 53.0104 132.885 53.0104C121 53.0104 109.829 57.6374 101.424 66.0422L97.3864 70.0802C95.6323 71.8349 95.6323 74.6789 97.3864 76.4335C98.2638 77.3104 99.4133 77.7493 100.563 77.7493C101.712 77.7493 102.862 77.3104 103.739 76.4335L107.777 72.3955C114.485 65.6869 123.4 61.9952 132.885 61.9952C132.903 61.9952 132.92 61.9952 132.937 61.9952L140.992 62.0065C140.994 62.0065 140.996 62.0065 140.998 62.0065C142.19 62.0065 143.332 61.533 144.175 60.6907L184.041 20.8248C185.795 19.0707 185.795 16.2262 184.041 14.4716Z" fill="url(#paint2_linear)"/>
<path d="M228.684 32.8014C226.931 31.0476 224.086 31.0476 222.331 32.8014L169.309 85.8244C168.465 86.6685 167.991 87.8135 167.993 89.0075L168.011 101.471C168.015 103.95 170.025 105.957 172.503 105.957C172.506 105.957 172.508 105.957 172.51 105.957C174.991 105.953 177 103.939 176.996 101.458L176.981 90.8583L228.684 39.1547C230.438 37.4005 230.438 34.556 228.684 32.8014Z" fill="url(#paint3_linear)"/>
<path d="M228.684 190.844L176.98 139.14L176.989 132.949C176.998 127.046 175.855 121.29 173.594 115.839C172.643 113.547 170.015 112.46 167.724 113.41C165.432 114.361 164.345 116.989 165.295 119.281C167.1 123.631 168.011 128.226 168.004 132.936L167.993 140.991C167.991 142.185 168.464 143.33 169.308 144.174L222.331 197.197C223.209 198.074 224.358 198.513 225.508 198.513C226.657 198.513 227.807 198.074 228.684 197.197C230.438 195.443 230.439 192.598 228.684 190.844Z" fill="url(#paint4_linear)"/>
<path d="M197.198 222.331L144.175 169.308C143.332 168.466 142.19 167.993 140.999 167.993C140.997 167.993 140.994 167.993 140.992 167.993L128.529 168.01C126.048 168.014 124.039 170.028 124.043 172.509C124.047 174.988 126.057 176.995 128.535 176.995C128.537 176.995 128.54 176.995 128.542 176.995L139.141 176.98L190.845 228.684C191.723 229.561 192.872 230 194.022 230C195.171 230 196.321 229.561 197.198 228.684C198.952 226.93 198.952 224.085 197.198 222.331Z" fill="url(#paint5_linear)"/>
<path d="M160.655 113.979C159.636 112.96 158.484 112.155 157.257 111.557C158.307 109.689 158.869 107.574 158.869 105.372C158.869 101.992 157.553 98.8135 155.163 96.4228C154.081 95.342 152.852 94.4979 151.539 93.8905C153.804 89.18 152.99 83.347 149.09 79.4464C145.19 75.5476 139.36 74.7323 134.65 76.9955C134.032 75.6662 133.181 74.4408 132.114 73.3734C127.178 68.4392 119.15 68.4401 114.215 73.3734L96.2804 91.3089C95.938 87.6734 94.0617 84.2135 90.8722 81.9804C88.0237 79.9859 84.5724 79.2384 81.1538 79.8772C77.7353 80.516 74.7866 82.4579 72.8496 85.346L60.5442 103.697C55.5996 111.07 52.9924 119.661 53.005 128.541L53.0202 139.139L1.31614 190.844C-0.438061 192.598 -0.438061 195.443 1.31614 197.197C2.19301 198.074 3.34301 198.513 4.49256 198.513C5.6421 198.513 6.7921 198.074 7.66898 197.197L60.6915 144.175C61.5351 143.331 62.0091 142.185 62.0073 140.991L61.9893 128.528C61.9794 121.442 64.0598 114.586 68.0066 108.701L80.3116 90.3503C80.8929 89.4837 81.7778 88.9011 82.8034 88.7097C83.8285 88.5183 84.8648 88.7421 85.7192 89.3404C87.3755 90.5003 87.8517 92.763 86.8037 94.492L81.9952 102.423C80.4787 104.925 81.0487 108.051 83.3501 109.857C85.6514 111.663 88.8238 111.471 90.8924 109.403L120.568 79.7267C122 78.2946 124.329 78.295 125.761 79.7267C126.454 80.4203 126.836 81.3421 126.836 82.3227C126.836 83.1551 126.559 83.9431 126.051 84.5872L108.49 102.19C106.735 103.944 106.735 106.788 108.49 108.543C110.244 110.297 113.088 110.297 114.843 108.543L137.546 85.7997C138.977 84.368 141.306 84.368 142.738 85.7992C144.169 87.2313 144.169 89.5601 142.738 90.9917L120.015 113.715C118.261 115.469 118.261 118.314 120.015 120.068C120.892 120.945 122.042 121.384 123.191 121.384C124.341 121.384 125.491 120.945 126.368 120.068L143.95 102.485C145.39 101.355 147.484 101.45 148.81 102.776C149.504 103.47 149.886 104.391 149.886 105.372C149.886 106.353 149.504 107.274 148.81 107.968L131.539 125.239C129.785 126.993 129.785 129.837 131.539 131.592C132.416 132.469 133.566 132.908 134.715 132.908C135.865 132.908 137.015 132.469 137.892 131.592L149.441 120.043C150.881 118.91 152.977 119.005 154.303 120.332C154.997 121.026 155.379 121.948 155.379 122.928C155.379 123.909 154.997 124.831 154.303 125.524L122.224 157.603C115.516 164.312 106.601 168.003 97.1159 168.003C97.0988 168.003 97.0813 168.003 97.0647 168.003L89.0093 167.992C89.0071 167.992 89.0053 167.992 89.003 167.992C87.8117 167.992 86.6689 168.466 85.8266 169.308L44.0889 211.046C42.3347 212.8 42.3347 215.644 44.0889 217.399C44.9662 218.276 46.1157 218.715 47.2653 218.715C48.4148 218.715 49.5648 218.276 50.4417 217.399L90.861 176.979L97.0521 176.988C97.0741 176.988 97.0948 176.988 97.1164 176.988C109.001 176.988 120.172 172.361 128.578 163.956L160.655 131.877C165.589 126.943 165.589 118.914 160.655 113.979Z" fill="url(#paint6_linear)"/>
<defs>
<linearGradient x1="0" y1="60.933" x2="62.0072" y2="60.933" gradientUnits="userSpaceOnUse">
<stop stop-color="#950B32"/>
<stop offset="1" stop-color="#E85649"/>
</linearGradient>
<linearGradient x1="31.4871" y1="26.0607" x2="105.957" y2="26.0607" gradientUnits="userSpaceOnUse">
<stop stop-color="#950B32"/>
<stop offset="1" stop-color="#E85649"/>
</linearGradient>
<linearGradient x1="96.0708" y1="40.3041" x2="185.357" y2="40.3041" gradientUnits="userSpaceOnUse">
<stop stop-color="#950B32"/>
<stop offset="1" stop-color="#E85649"/>
</linearGradient>
<linearGradient x1="167.993" y1="62.7853" x2="230" y2="62.7853" gradientUnits="userSpaceOnUse">
<stop stop-color="#950B32"/>
<stop offset="1" stop-color="#E85649"/>
</linearGradient>
<linearGradient x1="164.951" y1="148.979" x2="230" y2="148.979" gradientUnits="userSpaceOnUse">
<stop stop-color="#950B32"/>
<stop offset="1" stop-color="#E85649"/>
</linearGradient>
<linearGradient x1="124.043" y1="194.054" x2="198.514" y2="194.054" gradientUnits="userSpaceOnUse">
<stop stop-color="#950B32"/>
<stop offset="1" stop-color="#E85649"/>
</linearGradient>
<linearGradient x1="0.000488281" y1="132.314" x2="164.356" y2="132.314" gradientUnits="userSpaceOnUse">
<stop stop-color="#950B32"/>
<stop offset="1" stop-color="#E85649"/>
</linearGradient>
</defs>
</svg>
