<svg width="7" height="5" viewBox="0 0 7 5" fill="none" xmlns="http://www.w3.org/2000/svg">
<path d="M0.305492 0.405677C1.22047 1.18056 2.82596 2.54382 3.29784 2.96888C3.36118 3.02625 3.42912 3.05542 3.49966 3.05542C3.57005 3.05542 3.63788 3.02652 3.70108 2.96943C4.17336 2.54395 5.77885 1.18056 6.69384 0.405677C6.7508 0.357526 6.75949 0.272891 6.71337 0.214023C6.60675 0.0779948 6.4478 0 6.27743 0H0.721886C0.551534 0 0.392563 0.0779948 0.285961 0.214037C0.239841 0.272891 0.248526 0.357526 0.305492 0.405677Z" fill="#FAFAFA"/>
<path d="M6.75261 0.825449C6.70338 0.802532 6.64546 0.810527 6.6045 0.845527C5.58981 1.70571 4.29479 2.80829 3.88734 3.17544C3.65865 3.38187 3.34127 3.38187 3.11205 3.17516C2.67775 2.78386 1.22348 1.54756 0.395176 0.845514C0.353939 0.810514 0.295892 0.802792 0.247064 0.825435C0.197975 0.848235 0.166504 0.897336 0.166504 0.951451V4.44429C0.166504 4.7507 0.415658 4.99985 0.722064 4.99985H6.27762C6.58402 4.99985 6.83317 4.7507 6.83317 4.44429V0.951451C6.83317 0.897336 6.8017 0.848105 6.75261 0.825449Z" fill="#FAFAFA"/>
</svg>
