<svg width="22" height="22" viewBox="0 0 22 22" fill="none" xmlns="http://www.w3.org/2000/svg">
<path d="M13.1055 11C13.1055 12.1628 12.1628 13.1055 11 13.1055C9.83716 13.1055 8.89453 12.1628 8.89453 11C8.89453 9.83716 9.83716 8.89453 11 8.89453C12.1628 8.89453 13.1055 9.83716 13.1055 11Z" fill="url(#paint0_linear)"/>
<path d="M15.9236 7.27434C15.8224 7.00008 15.661 6.75183 15.4512 6.54807C15.2474 6.33826 14.9993 6.17679 14.7249 6.07558C14.5023 5.98914 14.168 5.88625 13.5521 5.85822C12.886 5.82784 12.6862 5.82129 10.9997 5.82129C9.313 5.82129 9.11327 5.82767 8.44725 5.85805C7.83142 5.88625 7.4969 5.98914 7.27451 6.07558C7.00008 6.17679 6.75183 6.33826 6.54823 6.54807C6.33842 6.75183 6.17696 6.99991 6.07558 7.27434C5.98914 7.4969 5.88625 7.83142 5.85822 8.44725C5.82784 9.11327 5.82129 9.313 5.82129 10.9997C5.82129 12.6862 5.82784 12.886 5.85822 13.5521C5.88625 14.168 5.98914 14.5023 6.07558 14.7249C6.17696 14.9993 6.33826 15.2474 6.54807 15.4512C6.75183 15.661 6.99991 15.8224 7.27434 15.9236C7.4969 16.0103 7.83142 16.1131 8.44725 16.1412C9.11327 16.1716 9.31284 16.1779 10.9995 16.1779C12.6864 16.1779 12.8861 16.1716 13.552 16.1412C14.1678 16.1131 14.5023 16.0103 14.7249 15.9236C15.2758 15.7112 15.7112 15.2758 15.9236 14.7249C16.0101 14.5023 16.113 14.168 16.1412 13.5521C16.1716 12.886 16.1779 12.6862 16.1779 10.9997C16.1779 9.313 16.1716 9.11327 16.1412 8.44725C16.1131 7.83142 16.0103 7.4969 15.9236 7.27434ZM10.9997 14.243C9.20827 14.243 7.75606 12.791 7.75606 10.9995C7.75606 9.2081 9.20827 7.75606 10.9997 7.75606C12.791 7.75606 14.2432 9.2081 14.2432 10.9995C14.2432 12.791 12.791 14.243 10.9997 14.243ZM14.3714 8.38582C13.9528 8.38582 13.6134 8.04643 13.6134 7.62782C13.6134 7.20921 13.9528 6.86983 14.3714 6.86983C14.79 6.86983 15.1294 7.20921 15.1294 7.62782C15.1292 8.04643 14.79 8.38582 14.3714 8.38582Z" fill="url(#paint1_linear)"/>
<path d="M11 0C4.9258 0 0 4.9258 0 11C0 17.0742 4.9258 22 11 22C17.0742 22 22 17.0742 22 11C22 4.9258 17.0742 0 11 0ZM17.2783 13.6041C17.2478 14.2765 17.1408 14.7356 16.9847 15.1374C16.6566 15.9859 15.9859 16.6566 15.1374 16.9847C14.7358 17.1408 14.2765 17.2476 13.6043 17.2783C12.9307 17.309 12.7156 17.3164 11.0002 17.3164C9.28461 17.3164 9.0696 17.309 8.39586 17.2783C7.72363 17.2476 7.2644 17.1408 6.86275 16.9847C6.44112 16.8261 6.05943 16.5775 5.74388 16.2561C5.42262 15.9407 5.17404 15.5589 5.01543 15.1374C4.85933 14.7358 4.75241 14.2765 4.72186 13.6043C4.69081 12.9306 4.68359 12.7154 4.68359 11C4.68359 9.28461 4.69081 9.06943 4.72169 8.39586C4.75224 7.72346 4.85899 7.2644 5.01509 6.86258C5.17371 6.44112 5.42245 6.05927 5.74388 5.74388C6.05927 5.42245 6.44112 5.17387 6.86258 5.01526C7.2644 4.85916 7.72346 4.75241 8.39586 4.72169C9.06943 4.69098 9.28461 4.68359 11 4.68359C12.7154 4.68359 12.9306 4.69098 13.6041 4.72186C14.2765 4.75241 14.7356 4.85916 15.1374 5.01509C15.5589 5.17371 15.9407 5.42245 16.2563 5.74388C16.5775 6.05943 16.8263 6.44112 16.9847 6.86258C17.141 7.2644 17.2478 7.72346 17.2785 8.39586C17.3092 9.06943 17.3164 9.28461 17.3164 11C17.3164 12.7154 17.3092 12.9306 17.2783 13.6041Z" fill="url(#paint2_linear)"/>
<defs>
<linearGradient id="instagram" x1="8.89453" y1="10.6643" x2="13.1055" y2="10.6643" gradientUnits="userSpaceOnUse">
<stop stop-color="#950B32"/>
<stop offset="1" stop-color="#E85649"/>
</linearGradient>
<linearGradient id="instagram" x1="5.82129" y1="10.1741" x2="16.1779" y2="10.1741" gradientUnits="userSpaceOnUse">
<stop stop-color="#950B32"/>
<stop offset="1" stop-color="#E85649"/>
</linearGradient>
<linearGradient id="instagram-1" x1="0" y1="9.24638" x2="22" y2="9.24638" gradientUnits="userSpaceOnUse">
<stop stop-color="#950B32"/>
<stop offset="1" stop-color="#E85649"/>
</linearGradient>
</defs>
</svg>
