<svg width="15" height="15" viewBox="0 0 15 15" fill="none" xmlns="http://www.w3.org/2000/svg">
<path d="M12.479 2.60804C11.3338 0.950713 9.51898 0 7.5001 0C5.48123 0 3.66637 0.950713 2.52124 2.60804C1.38174 4.25698 1.11863 6.34459 1.81601 8.18897C2.00254 8.69265 2.29906 9.18199 2.69521 9.64055L7.10082 14.8154C7.20045 14.9325 7.34644 15 7.5001 15C7.65376 15 7.79975 14.9325 7.89939 14.8154L12.3038 9.64195C12.7017 9.18076 12.9978 8.69194 13.1828 8.19231C13.8816 6.34459 13.6185 4.25698 12.479 2.60804ZM12.2006 7.82499C12.058 8.21048 11.8251 8.5916 11.5089 8.95819C11.508 8.95907 11.5071 8.95995 11.5064 8.96101L7.5001 13.6666L3.49135 8.95805C3.17527 8.59178 2.94239 8.21068 2.79833 7.8215C2.2216 6.29616 2.44047 4.57011 3.38401 3.20455C4.3305 1.83463 5.83085 1.04895 7.5001 1.04895C9.16932 1.04895 10.6695 1.8346 11.616 3.20455C12.5597 4.57011 12.7788 6.29616 12.2006 7.82499Z" fill="#231F20"/>
<path d="M7.50006 3.11194C5.88064 3.11194 4.56299 4.42942 4.56299 6.04901C4.56299 7.6686 5.88047 8.98608 7.50006 8.98608C9.11965 8.98608 10.4371 7.6686 10.4371 6.04901C10.4371 4.42959 9.11947 3.11194 7.50006 3.11194ZM7.50006 7.9371C6.45897 7.9371 5.61193 7.09007 5.61193 6.04898C5.61193 5.00789 6.45897 4.16085 7.50006 4.16085C8.54115 4.16085 9.38818 5.00789 9.38818 6.04898C9.38818 7.09007 8.54115 7.9371 7.50006 7.9371Z" fill="#231F20"/>
</svg>
