<svg width="35" height="35" viewBox="0 0 35 35" fill="none" xmlns="http://www.w3.org/2000/svg">
<path d="M17.5164 14.5036C19.1875 14.4975 20.5184 13.1552 20.5123 11.4805C20.5062 9.80518 19.1724 8.47214 17.5007 8.4707C15.8149 8.46891 14.4686 9.82666 14.4815 11.517C14.4941 13.1856 15.84 14.5097 17.5164 14.5036Z" fill="#231F20"/>
<path d="M17.5 0C7.83499 0 0 7.83535 0 17.5C0 27.1647 7.83499 35 17.5 35C27.165 35 35 27.1647 35 17.5C35 7.83535 27.165 0 17.5 0ZM17.5251 5.32179C20.9338 5.3311 23.6697 8.11928 23.6521 11.5656C23.6349 14.9324 20.8543 17.6611 17.4513 17.6497C14.0831 17.6382 11.3207 14.8457 11.3407 11.4721C11.3597 8.06164 14.1235 5.31248 17.5251 5.32179ZM24.4291 20.0716C23.6754 20.8453 22.7681 21.4053 21.7605 21.796C20.8081 22.1651 19.7643 22.3509 18.731 22.4748C18.8875 22.6446 18.9609 22.728 19.0583 22.8254C20.4604 24.235 21.8694 25.6375 23.2669 27.0512C23.7431 27.5331 23.8423 28.1303 23.5802 28.69C23.2941 29.3023 22.6521 29.7047 22.0223 29.6614C21.6234 29.6338 21.3122 29.4358 21.0362 29.1576C19.9777 28.0927 18.8993 27.0469 17.8631 25.9619C17.5605 25.6461 17.4159 25.7063 17.1491 25.9806C16.0846 27.0769 15.0026 28.1558 13.9144 29.2289C13.4257 29.7108 12.8442 29.7982 12.277 29.5225C11.6744 29.231 11.2913 28.6155 11.3207 27.9964C11.3414 27.5789 11.547 27.2588 11.8341 26.9731C13.2223 25.5878 14.6062 24.1982 15.9904 22.8096C16.0825 22.7176 16.1677 22.6198 16.3012 22.4766C14.4132 22.2793 12.7106 21.8146 11.253 20.6749C11.0718 20.5331 10.8853 20.3963 10.7206 20.2373C10.0821 19.6247 10.0181 18.9226 10.5226 18.2C10.9547 17.5813 11.6794 17.4159 12.4331 17.7714C12.5792 17.8398 12.7182 17.9264 12.8514 18.0181C15.5676 19.8847 19.2992 19.9359 22.0262 18.1015C22.2962 17.8953 22.5851 17.7256 22.9199 17.64C23.5701 17.4724 24.1774 17.712 24.5261 18.2813C24.9254 18.9319 24.9207 19.5663 24.4291 20.0716Z" fill="#231F20"/>
</svg>
