<svg width="22" height="22" viewBox="0 0 22 22" fill="none" xmlns="http://www.w3.org/2000/svg">
<path d="M18.777 3.22065C14.4806 -1.07446 7.51576 -1.07343 3.22065 3.22301C-1.07446 7.51945 -1.07343 14.4842 3.22301 18.7794C7.51946 23.0745 14.4843 23.0734 18.7794 18.777C20.8421 16.7136 22.0006 13.9153 22 10.9976C21.9994 8.08049 20.8401 5.28306 18.777 3.22065ZM16.6591 15.3229C16.6586 15.3233 16.6582 15.3239 16.6577 15.3243V15.3207L16.1003 15.8743C15.3795 16.6042 14.3297 16.9045 13.332 16.6663C12.3267 16.3973 11.3711 15.9689 10.5013 15.3977C9.69324 14.8812 8.94438 14.2775 8.26832 13.5973C7.64626 12.9798 7.08741 12.3018 6.59997 11.5733C6.06681 10.7895 5.64482 9.93562 5.34597 9.03599C5.00338 7.97913 5.28727 6.81945 6.07932 6.04034L6.73197 5.38769C6.91343 5.20542 7.20828 5.20477 7.39051 5.38623C7.39098 5.3867 7.3915 5.38717 7.39197 5.38769L9.45262 7.44834C9.63489 7.6298 9.63554 7.92465 9.45408 8.10688C9.45361 8.10735 9.45314 8.10782 9.45262 8.10834L8.24262 9.31834C7.89543 9.66174 7.85178 10.2074 8.13997 10.6017C8.5776 11.2023 9.0619 11.7675 9.58831 12.292C10.1752 12.8815 10.8133 13.4177 11.495 13.8944C11.8889 14.1691 12.4229 14.1228 12.7636 13.7844L13.9333 12.5964C14.1147 12.4141 14.4096 12.4135 14.5918 12.5949C14.5923 12.5954 14.5928 12.5959 14.5933 12.5964L16.6576 14.6644C16.8399 14.8458 16.8406 15.1406 16.6591 15.3229Z" fill="url(#paint0_linear)"/>
<defs>
<linearGradient id="phone" x1="0" y1="9.24638" x2="22" y2="9.24638" gradientUnits="userSpaceOnUse">
<stop stop-color="#950B32"/>
<stop offset="1" stop-color="#E85649"/>
</linearGradient>
</defs>
</svg>
